<mxfile host="Electron" agent="Mozilla/5.0 (Windows NT 10.0; Win64; x64) AppleWebKit/537.36 (KHTML, like Gecko) draw.io/26.0.16 Chrome/132.0.6834.196 Electron/34.2.0 Safari/537.36" version="26.0.16" pages="2">
  <diagram name="Page-1" id="Y5sspeh3HWYCxle4_a0h">
    <mxGraphModel dx="864" dy="556" grid="1" gridSize="10" guides="1" tooltips="1" connect="1" arrows="1" fold="1" page="1" pageScale="1" pageWidth="850" pageHeight="1100" math="0" shadow="0">
      <root>
        <mxCell id="0" />
        <mxCell id="1" parent="0" />
        <mxCell id="tgS8uAA9oBK9mvlBz5-T-1" value="Sistem Penyewaan Gaun" style="swimlane;childLayout=stackLayout;resizeParent=1;resizeParentMax=0;startSize=20;horizontal=0;horizontalStack=1;" parent="1" vertex="1">
          <mxGeometry x="20" y="20" width="480" height="1040" as="geometry" />
        </mxCell>
        <mxCell id="tgS8uAA9oBK9mvlBz5-T-3" value="Customer" style="swimlane;startSize=20;" parent="tgS8uAA9oBK9mvlBz5-T-1" vertex="1">
          <mxGeometry x="20" width="270" height="1040" as="geometry" />
        </mxCell>
        <mxCell id="tgS8uAA9oBK9mvlBz5-T-25" value="" style="rhombus;" parent="tgS8uAA9oBK9mvlBz5-T-3" vertex="1">
          <mxGeometry x="50" y="180" width="40" height="40" as="geometry" />
        </mxCell>
        <mxCell id="tgS8uAA9oBK9mvlBz5-T-24" value="" style="ellipse;fillColor=strokeColor;html=1;" parent="tgS8uAA9oBK9mvlBz5-T-3" vertex="1">
          <mxGeometry x="52.5" y="40" width="35" height="30" as="geometry" />
        </mxCell>
        <mxCell id="tgS8uAA9oBK9mvlBz5-T-21" value="Penyewaan" style="html=1;align=center;verticalAlign=top;rounded=1;absoluteArcSize=1;arcSize=10;dashed=0;whiteSpace=wrap;" parent="tgS8uAA9oBK9mvlBz5-T-3" vertex="1">
          <mxGeometry x="140" y="530" width="110" height="40" as="geometry" />
        </mxCell>
        <mxCell id="tgS8uAA9oBK9mvlBz5-T-22" value="Cari / Lihat&lt;div&gt;Gaun&lt;/div&gt;" style="html=1;align=center;verticalAlign=top;rounded=1;absoluteArcSize=1;arcSize=10;dashed=0;whiteSpace=wrap;" parent="tgS8uAA9oBK9mvlBz5-T-3" vertex="1">
          <mxGeometry x="140" y="340" width="110" height="40" as="geometry" />
        </mxCell>
        <mxCell id="tgS8uAA9oBK9mvlBz5-T-28" value="Buka&lt;div&gt;Sistem&lt;/div&gt;" style="html=1;align=center;verticalAlign=top;rounded=1;absoluteArcSize=1;arcSize=10;dashed=0;whiteSpace=wrap;" parent="tgS8uAA9oBK9mvlBz5-T-3" vertex="1">
          <mxGeometry x="15" y="110" width="110" height="40" as="geometry" />
        </mxCell>
        <mxCell id="tgS8uAA9oBK9mvlBz5-T-30" value="" style="html=1;verticalAlign=bottom;labelBackgroundColor=none;endArrow=block;endFill=1;endSize=6;align=left;rounded=0;entryX=0.5;entryY=0;entryDx=0;entryDy=0;" parent="tgS8uAA9oBK9mvlBz5-T-3" source="tgS8uAA9oBK9mvlBz5-T-24" target="tgS8uAA9oBK9mvlBz5-T-28" edge="1">
          <mxGeometry x="-1" relative="1" as="geometry">
            <mxPoint x="52.5" y="220" as="sourcePoint" />
            <mxPoint x="212.5" y="220" as="targetPoint" />
          </mxGeometry>
        </mxCell>
        <mxCell id="tgS8uAA9oBK9mvlBz5-T-31" value="" style="html=1;verticalAlign=bottom;labelBackgroundColor=none;endArrow=block;endFill=1;endSize=6;align=left;rounded=0;entryX=0.5;entryY=0;entryDx=0;entryDy=0;exitX=0.5;exitY=1;exitDx=0;exitDy=0;" parent="tgS8uAA9oBK9mvlBz5-T-3" source="tgS8uAA9oBK9mvlBz5-T-28" target="tgS8uAA9oBK9mvlBz5-T-25" edge="1">
          <mxGeometry x="-1" relative="1" as="geometry">
            <mxPoint x="80" y="80" as="sourcePoint" />
            <mxPoint x="80" y="120" as="targetPoint" />
          </mxGeometry>
        </mxCell>
        <mxCell id="tgS8uAA9oBK9mvlBz5-T-32" value="&lt;div&gt;&lt;br&gt;&lt;/div&gt;&lt;div&gt;&lt;br&gt;&lt;/div&gt;&lt;div&gt;&lt;br&gt;&lt;/div&gt;&lt;div&gt;&lt;br&gt;&lt;/div&gt;&lt;div&gt;&lt;br&gt;&lt;/div&gt;&lt;div&gt;&lt;br&gt;&lt;/div&gt;&lt;div&gt;&lt;br&gt;&lt;/div&gt;&lt;div&gt;&lt;br&gt;&lt;/div&gt;&lt;div&gt;&lt;br&gt;&lt;/div&gt;&lt;div&gt;&lt;br&gt;&lt;/div&gt;&lt;div&gt;&lt;br&gt;&lt;/div&gt;&lt;div&gt;&lt;br&gt;&lt;/div&gt;" style="html=1;verticalAlign=bottom;labelBackgroundColor=none;endArrow=block;endFill=1;endSize=6;align=left;rounded=0;entryX=0.5;entryY=0;entryDx=0;entryDy=0;exitX=0.5;exitY=1;exitDx=0;exitDy=0;" parent="tgS8uAA9oBK9mvlBz5-T-3" edge="1">
          <mxGeometry x="1" y="-28" relative="1" as="geometry">
            <mxPoint x="70" y="220" as="sourcePoint" />
            <mxPoint x="70" y="260" as="targetPoint" />
            <mxPoint x="8" y="20" as="offset" />
          </mxGeometry>
        </mxCell>
        <mxCell id="tgS8uAA9oBK9mvlBz5-T-35" value="Text" style="edgeLabel;html=1;align=center;verticalAlign=middle;resizable=0;points=[];" parent="tgS8uAA9oBK9mvlBz5-T-32" vertex="1" connectable="0">
          <mxGeometry x="-0.05" y="-8" relative="1" as="geometry">
            <mxPoint as="offset" />
          </mxGeometry>
        </mxCell>
        <mxCell id="tgS8uAA9oBK9mvlBz5-T-40" value="&lt;span style=&quot;text-align: left; background-color: rgb(251, 251, 251);&quot;&gt;Sudah&amp;nbsp;&lt;/span&gt;&lt;div&gt;&lt;span style=&quot;text-align: left; background-color: rgb(251, 251, 251);&quot;&gt;Registrasi&lt;/span&gt;&lt;/div&gt;" style="edgeLabel;html=1;align=center;verticalAlign=middle;resizable=0;points=[];" parent="tgS8uAA9oBK9mvlBz5-T-32" vertex="1" connectable="0">
          <mxGeometry x="-0.05" y="-8" relative="1" as="geometry">
            <mxPoint x="-22" y="-9" as="offset" />
          </mxGeometry>
        </mxCell>
        <mxCell id="tgS8uAA9oBK9mvlBz5-T-34" value="Belum&lt;div&gt;Registrasi&lt;/div&gt;" style="html=1;verticalAlign=bottom;labelBackgroundColor=none;endArrow=block;endFill=1;endSize=6;align=left;rounded=0;exitX=1;exitY=0.5;exitDx=0;exitDy=0;entryX=0;entryY=0.5;entryDx=0;entryDy=0;" parent="tgS8uAA9oBK9mvlBz5-T-3" source="tgS8uAA9oBK9mvlBz5-T-25" target="tgS8uAA9oBK9mvlBz5-T-33" edge="1">
          <mxGeometry x="-1" relative="1" as="geometry">
            <mxPoint x="80" y="230" as="sourcePoint" />
            <mxPoint x="140" y="200" as="targetPoint" />
          </mxGeometry>
        </mxCell>
        <mxCell id="tgS8uAA9oBK9mvlBz5-T-33" value="Registrasi" style="html=1;align=center;verticalAlign=top;rounded=1;absoluteArcSize=1;arcSize=10;dashed=0;whiteSpace=wrap;" parent="tgS8uAA9oBK9mvlBz5-T-3" vertex="1">
          <mxGeometry x="150" y="185" width="100" height="30" as="geometry" />
        </mxCell>
        <mxCell id="tgS8uAA9oBK9mvlBz5-T-41" value="" style="html=1;verticalAlign=bottom;labelBackgroundColor=none;endArrow=block;endFill=1;endSize=6;align=left;rounded=0;exitX=0.5;exitY=1;exitDx=0;exitDy=0;entryX=1;entryY=0.5;entryDx=0;entryDy=0;" parent="tgS8uAA9oBK9mvlBz5-T-3" source="tgS8uAA9oBK9mvlBz5-T-33" target="tgS8uAA9oBK9mvlBz5-T-43" edge="1">
          <mxGeometry x="-1" relative="1" as="geometry">
            <mxPoint x="80" y="160" as="sourcePoint" />
            <mxPoint x="120" y="280" as="targetPoint" />
            <Array as="points">
              <mxPoint x="200" y="280" />
            </Array>
          </mxGeometry>
        </mxCell>
        <mxCell id="tgS8uAA9oBK9mvlBz5-T-43" value="Login" style="rhombus;" parent="tgS8uAA9oBK9mvlBz5-T-3" vertex="1">
          <mxGeometry x="50" y="260" width="40" height="40" as="geometry" />
        </mxCell>
        <mxCell id="tgS8uAA9oBK9mvlBz5-T-44" value="" style="html=1;verticalAlign=bottom;labelBackgroundColor=none;endArrow=block;endFill=1;endSize=6;align=left;rounded=0;entryX=0.5;entryY=0;entryDx=0;entryDy=0;exitX=0.5;exitY=1;exitDx=0;exitDy=0;" parent="tgS8uAA9oBK9mvlBz5-T-3" source="tgS8uAA9oBK9mvlBz5-T-43" target="tgS8uAA9oBK9mvlBz5-T-45" edge="1">
          <mxGeometry x="-1" relative="1" as="geometry">
            <mxPoint x="80" y="160" as="sourcePoint" />
            <mxPoint x="80" y="190" as="targetPoint" />
          </mxGeometry>
        </mxCell>
        <mxCell id="tgS8uAA9oBK9mvlBz5-T-45" value="" style="rhombus;" parent="tgS8uAA9oBK9mvlBz5-T-3" vertex="1">
          <mxGeometry x="50" y="340" width="40" height="40" as="geometry" />
        </mxCell>
        <mxCell id="tgS8uAA9oBK9mvlBz5-T-46" value="&lt;span style=&quot;text-align: left; text-wrap-mode: nowrap;&quot;&gt;&lt;font style=&quot;font-size: 12px;&quot;&gt;Pengembalian&lt;/font&gt;&lt;/span&gt;&lt;div&gt;&lt;span style=&quot;text-align: left; text-wrap-mode: nowrap;&quot;&gt;&lt;font style=&quot;font-size: 12px;&quot;&gt;Gaun&lt;/font&gt;&lt;/span&gt;&lt;/div&gt;" style="html=1;align=center;verticalAlign=top;rounded=1;absoluteArcSize=1;arcSize=10;dashed=0;whiteSpace=wrap;" parent="tgS8uAA9oBK9mvlBz5-T-3" vertex="1">
          <mxGeometry x="20" y="420" width="110" height="40" as="geometry" />
        </mxCell>
        <mxCell id="tgS8uAA9oBK9mvlBz5-T-48" value="" style="html=1;verticalAlign=bottom;labelBackgroundColor=none;endArrow=block;endFill=1;endSize=6;align=left;rounded=0;entryX=0;entryY=0.5;entryDx=0;entryDy=0;exitX=1;exitY=0.5;exitDx=0;exitDy=0;" parent="tgS8uAA9oBK9mvlBz5-T-3" source="tgS8uAA9oBK9mvlBz5-T-45" target="tgS8uAA9oBK9mvlBz5-T-22" edge="1">
          <mxGeometry x="-1" relative="1" as="geometry">
            <mxPoint x="100" y="370" as="sourcePoint" />
            <mxPoint x="70" y="410" as="targetPoint" />
          </mxGeometry>
        </mxCell>
        <mxCell id="tgS8uAA9oBK9mvlBz5-T-54" value="" style="html=1;verticalAlign=bottom;labelBackgroundColor=none;endArrow=block;endFill=1;endSize=6;align=left;rounded=0;exitX=0.5;exitY=1;exitDx=0;exitDy=0;entryX=0.5;entryY=0;entryDx=0;entryDy=0;" parent="tgS8uAA9oBK9mvlBz5-T-3" source="tgS8uAA9oBK9mvlBz5-T-22" edge="1" target="tgS8uAA9oBK9mvlBz5-T-21">
          <mxGeometry x="-1" relative="1" as="geometry">
            <mxPoint x="100" y="370" as="sourcePoint" />
            <mxPoint x="195" y="440" as="targetPoint" />
          </mxGeometry>
        </mxCell>
        <mxCell id="tgS8uAA9oBK9mvlBz5-T-80" value="Logout" style="html=1;align=center;verticalAlign=top;rounded=1;absoluteArcSize=1;arcSize=10;dashed=0;whiteSpace=wrap;" parent="tgS8uAA9oBK9mvlBz5-T-3" vertex="1">
          <mxGeometry x="100" y="850" width="90" height="40" as="geometry" />
        </mxCell>
        <mxCell id="tgS8uAA9oBK9mvlBz5-T-81" value="Menutup&lt;div&gt;Sistem&lt;/div&gt;" style="html=1;align=center;verticalAlign=top;rounded=1;absoluteArcSize=1;arcSize=10;dashed=0;whiteSpace=wrap;" parent="tgS8uAA9oBK9mvlBz5-T-3" vertex="1">
          <mxGeometry x="100" y="920" width="90" height="40" as="geometry" />
        </mxCell>
        <mxCell id="tgS8uAA9oBK9mvlBz5-T-82" value="" style="ellipse;html=1;shape=endState;fillColor=strokeColor;" parent="tgS8uAA9oBK9mvlBz5-T-3" vertex="1">
          <mxGeometry x="125" y="990" width="30" height="30" as="geometry" />
        </mxCell>
        <mxCell id="tgS8uAA9oBK9mvlBz5-T-88" value="" style="html=1;verticalAlign=bottom;labelBackgroundColor=none;endArrow=block;endFill=1;endSize=6;align=left;rounded=0;entryX=0.43;entryY=0.013;entryDx=0;entryDy=0;exitX=0.43;exitY=0.95;exitDx=0;exitDy=0;entryPerimeter=0;exitPerimeter=0;" parent="tgS8uAA9oBK9mvlBz5-T-3" source="tgS8uAA9oBK9mvlBz5-T-80" target="tgS8uAA9oBK9mvlBz5-T-81" edge="1">
          <mxGeometry x="-1" relative="1" as="geometry">
            <mxPoint x="358" y="880" as="sourcePoint" />
            <mxPoint x="200" y="880" as="targetPoint" />
          </mxGeometry>
        </mxCell>
        <mxCell id="tgS8uAA9oBK9mvlBz5-T-89" value="" style="html=1;verticalAlign=bottom;labelBackgroundColor=none;endArrow=block;endFill=1;endSize=6;align=left;rounded=0;entryX=0.5;entryY=0;entryDx=0;entryDy=0;exitX=0.439;exitY=0.971;exitDx=0;exitDy=0;exitPerimeter=0;" parent="tgS8uAA9oBK9mvlBz5-T-3" source="tgS8uAA9oBK9mvlBz5-T-81" target="tgS8uAA9oBK9mvlBz5-T-82" edge="1">
          <mxGeometry x="-1" relative="1" as="geometry">
            <mxPoint x="155" y="900" as="sourcePoint" />
            <mxPoint x="155" y="930" as="targetPoint" />
          </mxGeometry>
        </mxCell>
        <mxCell id="9iibD7TAD-ThyDuxFoVr-8" value="" style="html=1;verticalAlign=bottom;labelBackgroundColor=none;endArrow=block;endFill=1;endSize=6;align=left;rounded=0;exitX=0.5;exitY=1;exitDx=0;exitDy=0;" parent="tgS8uAA9oBK9mvlBz5-T-3" source="tgS8uAA9oBK9mvlBz5-T-45" edge="1">
          <mxGeometry x="-1" relative="1" as="geometry">
            <mxPoint x="100" y="370" as="sourcePoint" />
            <mxPoint x="70" y="420" as="targetPoint" />
          </mxGeometry>
        </mxCell>
        <mxCell id="9iibD7TAD-ThyDuxFoVr-9" value="" style="html=1;verticalAlign=bottom;labelBackgroundColor=none;endArrow=block;endFill=1;endSize=6;align=left;rounded=0;entryX=0.645;entryY=0.043;entryDx=0;entryDy=0;exitX=0.5;exitY=1;exitDx=0;exitDy=0;entryPerimeter=0;" parent="tgS8uAA9oBK9mvlBz5-T-3" source="tgS8uAA9oBK9mvlBz5-T-21" target="9iibD7TAD-ThyDuxFoVr-87" edge="1">
          <mxGeometry x="-1" relative="1" as="geometry">
            <mxPoint x="235" y="530" as="sourcePoint" />
            <mxPoint x="195" y="630" as="targetPoint" />
          </mxGeometry>
        </mxCell>
        <mxCell id="9iibD7TAD-ThyDuxFoVr-70" value="Bayar&lt;div&gt;Denda&lt;/div&gt;" style="html=1;align=center;verticalAlign=top;rounded=1;absoluteArcSize=1;arcSize=10;dashed=0;whiteSpace=wrap;" parent="tgS8uAA9oBK9mvlBz5-T-3" vertex="1">
          <mxGeometry x="80" y="730" width="110" height="40" as="geometry" />
        </mxCell>
        <mxCell id="9iibD7TAD-ThyDuxFoVr-87" value="Melakukan&lt;div&gt;Pembayaran&lt;/div&gt;" style="html=1;align=center;verticalAlign=top;rounded=1;absoluteArcSize=1;arcSize=10;dashed=0;whiteSpace=wrap;" parent="tgS8uAA9oBK9mvlBz5-T-3" vertex="1">
          <mxGeometry x="125" y="640" width="110" height="40" as="geometry" />
        </mxCell>
        <mxCell id="tgS8uAA9oBK9mvlBz5-T-6" value="Admin" style="swimlane;startSize=20;" parent="tgS8uAA9oBK9mvlBz5-T-1" vertex="1">
          <mxGeometry x="290" width="190" height="1040" as="geometry" />
        </mxCell>
        <mxCell id="tgS8uAA9oBK9mvlBz5-T-13" value="Menerima Data&lt;div&gt;Penyewaan&lt;/div&gt;" style="html=1;align=center;verticalAlign=top;rounded=1;absoluteArcSize=1;arcSize=10;dashed=0;whiteSpace=wrap;" parent="tgS8uAA9oBK9mvlBz5-T-6" vertex="1">
          <mxGeometry x="40" y="60" width="110" height="40" as="geometry" />
        </mxCell>
        <mxCell id="tgS8uAA9oBK9mvlBz5-T-60" value="" style="html=1;verticalAlign=bottom;labelBackgroundColor=none;endArrow=block;endFill=1;endSize=6;align=left;rounded=0;exitX=0.5;exitY=1;exitDx=0;exitDy=0;entryX=0.5;entryY=0;entryDx=0;entryDy=0;" parent="tgS8uAA9oBK9mvlBz5-T-6" source="tgS8uAA9oBK9mvlBz5-T-13" edge="1" target="tgS8uAA9oBK9mvlBz5-T-20">
          <mxGeometry x="-1" relative="1" as="geometry">
            <mxPoint x="285" y="230" as="sourcePoint" />
            <mxPoint x="95" y="160" as="targetPoint" />
          </mxGeometry>
        </mxCell>
        <mxCell id="tgS8uAA9oBK9mvlBz5-T-20" value="Konfirmasi&lt;div&gt;Penyewaan&lt;/div&gt;" style="html=1;align=center;verticalAlign=top;rounded=1;absoluteArcSize=1;arcSize=10;dashed=0;whiteSpace=wrap;" parent="tgS8uAA9oBK9mvlBz5-T-6" vertex="1">
          <mxGeometry x="40" y="240" width="110" height="40" as="geometry" />
        </mxCell>
        <mxCell id="9iibD7TAD-ThyDuxFoVr-74" value="Konfirmasi&lt;div&gt;Pengembalian&lt;/div&gt;" style="html=1;align=center;verticalAlign=top;rounded=1;absoluteArcSize=1;arcSize=10;dashed=0;whiteSpace=wrap;" parent="tgS8uAA9oBK9mvlBz5-T-6" vertex="1">
          <mxGeometry x="52.5" y="430" width="110" height="40" as="geometry" />
        </mxCell>
        <mxCell id="9iibD7TAD-ThyDuxFoVr-82" value="Terima Denda" style="html=1;align=center;verticalAlign=top;rounded=1;absoluteArcSize=1;arcSize=10;dashed=0;whiteSpace=wrap;" parent="tgS8uAA9oBK9mvlBz5-T-6" vertex="1">
          <mxGeometry x="40" y="790" width="110" height="40" as="geometry" />
        </mxCell>
        <mxCell id="9iibD7TAD-ThyDuxFoVr-88" value="Membuat&lt;div&gt;Laporan&lt;/div&gt;" style="html=1;align=center;verticalAlign=top;rounded=1;absoluteArcSize=1;arcSize=10;dashed=0;whiteSpace=wrap;" parent="tgS8uAA9oBK9mvlBz5-T-6" vertex="1">
          <mxGeometry x="52.5" y="910" width="110" height="40" as="geometry" />
        </mxCell>
        <mxCell id="9iibD7TAD-ThyDuxFoVr-89" value="" style="rhombus;" parent="tgS8uAA9oBK9mvlBz5-T-6" vertex="1">
          <mxGeometry x="75" y="320" width="40" height="40" as="geometry" />
        </mxCell>
        <mxCell id="9iibD7TAD-ThyDuxFoVr-90" value="" style="html=1;verticalAlign=bottom;labelBackgroundColor=none;endArrow=block;endFill=1;endSize=6;align=left;rounded=0;exitX=0.5;exitY=1;exitDx=0;exitDy=0;entryX=0.5;entryY=0;entryDx=0;entryDy=0;" parent="tgS8uAA9oBK9mvlBz5-T-6" source="tgS8uAA9oBK9mvlBz5-T-20" target="9iibD7TAD-ThyDuxFoVr-89" edge="1">
          <mxGeometry x="-1" relative="1" as="geometry">
            <mxPoint x="105" y="210" as="sourcePoint" />
            <mxPoint x="105" y="250" as="targetPoint" />
          </mxGeometry>
        </mxCell>
        <mxCell id="9iibD7TAD-ThyDuxFoVr-91" value="" style="html=1;verticalAlign=bottom;labelBackgroundColor=none;endArrow=block;endFill=1;endSize=6;align=left;rounded=0;exitX=0.5;exitY=1;exitDx=0;exitDy=0;entryX=0.75;entryY=0;entryDx=0;entryDy=0;" parent="tgS8uAA9oBK9mvlBz5-T-6" source="9iibD7TAD-ThyDuxFoVr-89" target="9iibD7TAD-ThyDuxFoVr-88" edge="1">
          <mxGeometry x="-1" relative="1" as="geometry">
            <mxPoint x="105" y="290" as="sourcePoint" />
            <mxPoint x="170" y="910" as="targetPoint" />
            <Array as="points">
              <mxPoint x="95" y="380" />
              <mxPoint x="180" y="380" />
              <mxPoint x="180" y="890" />
              <mxPoint x="135" y="890" />
            </Array>
          </mxGeometry>
        </mxCell>
        <mxCell id="9iibD7TAD-ThyDuxFoVr-19" value="" style="html=1;verticalAlign=bottom;labelBackgroundColor=none;endArrow=block;endFill=1;endSize=6;align=left;rounded=0;exitX=1;exitY=0.5;exitDx=0;exitDy=0;entryX=0;entryY=0.5;entryDx=0;entryDy=0;" parent="tgS8uAA9oBK9mvlBz5-T-1" target="tgS8uAA9oBK9mvlBz5-T-13" edge="1">
          <mxGeometry x="-1" relative="1" as="geometry">
            <mxPoint x="255" y="670" as="sourcePoint" />
            <mxPoint x="120" y="290" as="targetPoint" />
            <Array as="points">
              <mxPoint x="310" y="670" />
              <mxPoint x="310" y="80" />
            </Array>
          </mxGeometry>
        </mxCell>
        <mxCell id="tgS8uAA9oBK9mvlBz5-T-66" value="" style="html=1;verticalAlign=bottom;labelBackgroundColor=none;endArrow=block;endFill=1;endSize=6;align=left;rounded=0;exitX=0.5;exitY=1;exitDx=0;exitDy=0;entryX=0.5;entryY=1;entryDx=0;entryDy=0;" parent="tgS8uAA9oBK9mvlBz5-T-1" source="tgS8uAA9oBK9mvlBz5-T-46" target="9iibD7TAD-ThyDuxFoVr-74" edge="1">
          <mxGeometry x="-1" relative="1" as="geometry">
            <mxPoint x="230" y="530" as="sourcePoint" />
            <mxPoint x="690" y="310" as="targetPoint" />
            <Array as="points">
              <mxPoint x="95" y="500" />
              <mxPoint x="340" y="500" />
              <mxPoint x="398" y="500" />
            </Array>
          </mxGeometry>
        </mxCell>
        <mxCell id="9iibD7TAD-ThyDuxFoVr-83" value="" style="html=1;verticalAlign=bottom;labelBackgroundColor=none;endArrow=block;endFill=1;endSize=6;align=left;rounded=0;entryX=0;entryY=0.5;entryDx=0;entryDy=0;exitX=0.5;exitY=1;exitDx=0;exitDy=0;" parent="tgS8uAA9oBK9mvlBz5-T-1" source="9iibD7TAD-ThyDuxFoVr-70" target="9iibD7TAD-ThyDuxFoVr-82" edge="1">
          <mxGeometry x="-1" relative="1" as="geometry">
            <mxPoint x="169" y="898" as="sourcePoint" />
            <mxPoint x="169" y="931" as="targetPoint" />
            <Array as="points">
              <mxPoint x="155" y="810" />
            </Array>
          </mxGeometry>
        </mxCell>
        <mxCell id="9iibD7TAD-ThyDuxFoVr-85" value="" style="html=1;verticalAlign=bottom;labelBackgroundColor=none;endArrow=block;endFill=1;endSize=6;align=left;rounded=0;entryX=1;entryY=0.25;entryDx=0;entryDy=0;exitX=0.5;exitY=1;exitDx=0;exitDy=0;" parent="tgS8uAA9oBK9mvlBz5-T-1" source="9iibD7TAD-ThyDuxFoVr-82" target="tgS8uAA9oBK9mvlBz5-T-80" edge="1">
          <mxGeometry x="-1" relative="1" as="geometry">
            <mxPoint x="169" y="898" as="sourcePoint" />
            <mxPoint x="169" y="931" as="targetPoint" />
            <Array as="points">
              <mxPoint x="385" y="860" />
            </Array>
          </mxGeometry>
        </mxCell>
        <mxCell id="tgS8uAA9oBK9mvlBz5-T-5" value="Staff " style="swimlane;startSize=20;" parent="1" vertex="1">
          <mxGeometry x="500" y="20" width="170" height="1040" as="geometry" />
        </mxCell>
        <mxCell id="tgS8uAA9oBK9mvlBz5-T-18" value="Membuat&amp;nbsp;&lt;div&gt;&lt;span style=&quot;background-color: transparent; color: light-dark(rgb(0, 0, 0), rgb(255, 255, 255));&quot;&gt;Pesanan&lt;/span&gt;&lt;/div&gt;" style="html=1;align=center;verticalAlign=top;rounded=1;absoluteArcSize=1;arcSize=10;dashed=0;whiteSpace=wrap;" parent="tgS8uAA9oBK9mvlBz5-T-5" vertex="1">
          <mxGeometry x="30" y="90" width="110" height="40" as="geometry" />
        </mxCell>
        <mxCell id="tgS8uAA9oBK9mvlBz5-T-87" value="" style="rhombus;" parent="tgS8uAA9oBK9mvlBz5-T-5" vertex="1">
          <mxGeometry x="65" y="730" width="40" height="40" as="geometry" />
        </mxCell>
        <mxCell id="9iibD7TAD-ThyDuxFoVr-73" value="Cek Gaun" style="html=1;align=center;verticalAlign=top;rounded=1;absoluteArcSize=1;arcSize=10;dashed=0;whiteSpace=wrap;" parent="tgS8uAA9oBK9mvlBz5-T-5" vertex="1">
          <mxGeometry x="30" y="570" width="110" height="40" as="geometry" />
        </mxCell>
        <mxCell id="tgS8uAA9oBK9mvlBz5-T-86" value="" style="html=1;verticalAlign=bottom;labelBackgroundColor=none;endArrow=block;endFill=1;endSize=6;align=left;rounded=0;entryX=0.5;entryY=0;entryDx=0;entryDy=0;exitX=0.5;exitY=1;exitDx=0;exitDy=0;" parent="tgS8uAA9oBK9mvlBz5-T-5" source="9iibD7TAD-ThyDuxFoVr-73" target="tgS8uAA9oBK9mvlBz5-T-87" edge="1">
          <mxGeometry x="-1" relative="1" as="geometry">
            <mxPoint x="-205" y="780" as="sourcePoint" />
            <mxPoint x="-205" y="820" as="targetPoint" />
          </mxGeometry>
        </mxCell>
        <mxCell id="9iibD7TAD-ThyDuxFoVr-3" value="Kurir" style="swimlane;startSize=20;" parent="1" vertex="1">
          <mxGeometry x="670" y="20" width="190" height="1040" as="geometry" />
        </mxCell>
        <mxCell id="9iibD7TAD-ThyDuxFoVr-4" value="Menerima &amp;amp;&lt;div&gt;Mengirim Pesanan&lt;/div&gt;" style="html=1;align=center;verticalAlign=top;rounded=1;absoluteArcSize=1;arcSize=10;dashed=0;whiteSpace=wrap;" parent="9iibD7TAD-ThyDuxFoVr-3" vertex="1">
          <mxGeometry x="40" y="90" width="110" height="40" as="geometry" />
        </mxCell>
        <mxCell id="9iibD7TAD-ThyDuxFoVr-71" value="Pick Up" style="html=1;align=center;verticalAlign=top;rounded=1;absoluteArcSize=1;arcSize=10;dashed=0;whiteSpace=wrap;" parent="9iibD7TAD-ThyDuxFoVr-3" vertex="1">
          <mxGeometry x="40" y="290" width="110" height="40" as="geometry" />
        </mxCell>
        <mxCell id="9iibD7TAD-ThyDuxFoVr-15" value="Owner" style="swimlane;startSize=20;" parent="1" vertex="1">
          <mxGeometry x="860" y="20" width="190" height="1040" as="geometry" />
        </mxCell>
        <mxCell id="9iibD7TAD-ThyDuxFoVr-16" value="Menerima&amp;nbsp;&lt;div&gt;Laporan&lt;/div&gt;" style="html=1;align=center;verticalAlign=top;rounded=1;absoluteArcSize=1;arcSize=10;dashed=0;whiteSpace=wrap;" parent="9iibD7TAD-ThyDuxFoVr-15" vertex="1">
          <mxGeometry x="40" y="110" width="110" height="40" as="geometry" />
        </mxCell>
        <mxCell id="tgS8uAA9oBK9mvlBz5-T-52" value="" style="html=1;verticalAlign=bottom;labelBackgroundColor=none;endArrow=block;endFill=1;endSize=6;align=left;rounded=0;entryX=0;entryY=0.5;entryDx=0;entryDy=0;exitX=1;exitY=0.5;exitDx=0;exitDy=0;" parent="1" source="9iibD7TAD-ThyDuxFoVr-89" target="tgS8uAA9oBK9mvlBz5-T-18" edge="1">
          <mxGeometry x="-1" relative="1" as="geometry">
            <mxPoint x="460" y="330" as="sourcePoint" />
            <mxPoint x="395" y="390" as="targetPoint" />
            <Array as="points">
              <mxPoint x="510" y="360" />
              <mxPoint x="510" y="340" />
              <mxPoint x="510" y="130" />
            </Array>
          </mxGeometry>
        </mxCell>
        <mxCell id="9iibD7TAD-ThyDuxFoVr-18" value="" style="html=1;verticalAlign=bottom;labelBackgroundColor=none;endArrow=block;endFill=1;endSize=6;align=left;rounded=0;exitX=1;exitY=0.5;exitDx=0;exitDy=0;entryX=0;entryY=0.5;entryDx=0;entryDy=0;" parent="1" source="tgS8uAA9oBK9mvlBz5-T-18" target="9iibD7TAD-ThyDuxFoVr-4" edge="1">
          <mxGeometry x="-1" relative="1" as="geometry">
            <mxPoint x="415" y="130" as="sourcePoint" />
            <mxPoint x="415" y="190" as="targetPoint" />
          </mxGeometry>
        </mxCell>
        <mxCell id="9iibD7TAD-ThyDuxFoVr-72" value="" style="html=1;verticalAlign=bottom;labelBackgroundColor=none;endArrow=block;endFill=1;endSize=6;align=left;rounded=0;entryX=1;entryY=0.5;entryDx=0;entryDy=0;exitX=0.5;exitY=1;exitDx=0;exitDy=0;" parent="1" source="9iibD7TAD-ThyDuxFoVr-71" target="9iibD7TAD-ThyDuxFoVr-73" edge="1">
          <mxGeometry x="-1" relative="1" as="geometry">
            <mxPoint x="607.5" y="710" as="sourcePoint" />
            <mxPoint x="608" y="880" as="targetPoint" />
            <Array as="points">
              <mxPoint x="765" y="610" />
            </Array>
          </mxGeometry>
        </mxCell>
        <mxCell id="9iibD7TAD-ThyDuxFoVr-75" value="" style="html=1;verticalAlign=bottom;labelBackgroundColor=none;endArrow=block;endFill=1;endSize=6;align=left;rounded=0;exitX=1;exitY=0.5;exitDx=0;exitDy=0;entryX=0;entryY=0.5;entryDx=0;entryDy=0;" parent="1" source="9iibD7TAD-ThyDuxFoVr-74" target="9iibD7TAD-ThyDuxFoVr-71" edge="1">
          <mxGeometry x="-1" relative="1" as="geometry">
            <mxPoint x="125" y="490" as="sourcePoint" />
            <mxPoint x="428" y="500" as="targetPoint" />
            <Array as="points">
              <mxPoint x="690" y="470" />
              <mxPoint x="690" y="330" />
            </Array>
          </mxGeometry>
        </mxCell>
        <mxCell id="9iibD7TAD-ThyDuxFoVr-78" value="" style="html=1;verticalAlign=bottom;labelBackgroundColor=none;endArrow=block;endFill=1;endSize=6;align=left;rounded=0;entryX=1;entryY=0.5;entryDx=0;entryDy=0;exitX=0;exitY=0.5;exitDx=0;exitDy=0;" parent="1" source="tgS8uAA9oBK9mvlBz5-T-87" target="9iibD7TAD-ThyDuxFoVr-70" edge="1">
          <mxGeometry x="-1" relative="1" as="geometry">
            <mxPoint x="595" y="640" as="sourcePoint" />
            <mxPoint x="595" y="710" as="targetPoint" />
          </mxGeometry>
        </mxCell>
        <mxCell id="9iibD7TAD-ThyDuxFoVr-79" value="" style="html=1;verticalAlign=bottom;labelBackgroundColor=none;endArrow=block;endFill=1;endSize=6;align=left;rounded=0;exitX=0.5;exitY=1;exitDx=0;exitDy=0;entryX=1;entryY=0.5;entryDx=0;entryDy=0;" parent="1" source="tgS8uAA9oBK9mvlBz5-T-87" target="tgS8uAA9oBK9mvlBz5-T-80" edge="1">
          <mxGeometry x="-1" relative="1" as="geometry">
            <mxPoint x="595" y="640" as="sourcePoint" />
            <mxPoint x="380" y="880" as="targetPoint" />
            <Array as="points">
              <mxPoint x="585" y="890" />
            </Array>
          </mxGeometry>
        </mxCell>
        <mxCell id="9iibD7TAD-ThyDuxFoVr-81" value="Ga Denda, Langsung Logout" style="edgeLabel;html=1;align=center;verticalAlign=middle;resizable=0;points=[];" parent="9iibD7TAD-ThyDuxFoVr-79" vertex="1" connectable="0">
          <mxGeometry x="0.038" y="-1" relative="1" as="geometry">
            <mxPoint as="offset" />
          </mxGeometry>
        </mxCell>
        <mxCell id="9iibD7TAD-ThyDuxFoVr-80" value="Gaun Rusak/ Telat Mengembalikkan" style="text;html=1;align=center;verticalAlign=middle;resizable=0;points=[];autosize=1;strokeColor=none;fillColor=none;" parent="1" vertex="1">
          <mxGeometry x="320" y="748" width="220" height="30" as="geometry" />
        </mxCell>
        <mxCell id="9iibD7TAD-ThyDuxFoVr-86" value="" style="html=1;verticalAlign=bottom;labelBackgroundColor=none;endArrow=block;endFill=1;endSize=6;align=left;rounded=0;entryX=0.654;entryY=-0.029;entryDx=0;entryDy=0;exitX=0.639;exitY=1.043;exitDx=0;exitDy=0;exitPerimeter=0;entryPerimeter=0;" parent="1" source="9iibD7TAD-ThyDuxFoVr-4" target="tgS8uAA9oBK9mvlBz5-T-80" edge="1">
          <mxGeometry x="-1" relative="1" as="geometry">
            <mxPoint x="775" y="360" as="sourcePoint" />
            <mxPoint x="650" y="620" as="targetPoint" />
            <Array as="points">
              <mxPoint x="780" y="190" />
              <mxPoint x="830" y="190" />
              <mxPoint x="830" y="710" />
              <mxPoint x="330" y="710" />
              <mxPoint x="330" y="840" />
              <mxPoint x="199" y="840" />
            </Array>
          </mxGeometry>
        </mxCell>
        <mxCell id="9iibD7TAD-ThyDuxFoVr-92" value="" style="html=1;verticalAlign=bottom;labelBackgroundColor=none;endArrow=block;endFill=1;endSize=6;align=left;rounded=0;exitX=0.5;exitY=1;exitDx=0;exitDy=0;entryX=0;entryY=0.5;entryDx=0;entryDy=0;" parent="1" source="9iibD7TAD-ThyDuxFoVr-88" target="9iibD7TAD-ThyDuxFoVr-16" edge="1">
          <mxGeometry x="-1" relative="1" as="geometry">
            <mxPoint x="190" y="989" as="sourcePoint" />
            <mxPoint x="950" y="290" as="targetPoint" />
            <Array as="points">
              <mxPoint x="418" y="990" />
              <mxPoint x="880" y="990" />
              <mxPoint x="880" y="150" />
            </Array>
          </mxGeometry>
        </mxCell>
        <mxCell id="9iibD7TAD-ThyDuxFoVr-95" value="" style="html=1;verticalAlign=bottom;labelBackgroundColor=none;endArrow=block;endFill=1;endSize=6;align=left;rounded=0;entryX=1;entryY=0.5;entryDx=0;entryDy=0;exitX=0.5;exitY=1;exitDx=0;exitDy=0;" parent="1" source="9iibD7TAD-ThyDuxFoVr-16" target="tgS8uAA9oBK9mvlBz5-T-81" edge="1">
          <mxGeometry x="-1" relative="1" as="geometry">
            <mxPoint x="960" y="210" as="sourcePoint" />
            <mxPoint x="965" y="460" as="targetPoint" />
            <Array as="points">
              <mxPoint x="955" y="1010" />
              <mxPoint x="270" y="1010" />
              <mxPoint x="270" y="960" />
            </Array>
          </mxGeometry>
        </mxCell>
      </root>
    </mxGraphModel>
  </diagram>
  <diagram id="bQVfEgR6FHMh5MW-MlW8" name="Page-2">
    <mxGraphModel dx="864" dy="556" grid="1" gridSize="10" guides="1" tooltips="1" connect="1" arrows="1" fold="1" page="1" pageScale="1" pageWidth="850" pageHeight="1100" math="0" shadow="0">
      <root>
        <mxCell id="0" />
        <mxCell id="1" parent="0" />
      </root>
    </mxGraphModel>
  </diagram>
</mxfile>
